Coordinates
version=1
nRows=13
nColumns=34
inDegrees=yes

Units are S.I. units (second, meters, Newtons, ...)
If the header above contains a line with 'inDegrees', this indicates whether rotational values are in degrees (yes) or radians (no).

endheader
time	pelvis_tilt	pelvis_list	pelvis_rotation	pelvis_tx	pelvis_ty	pelvis_tz	hip_flexion_r	hip_adduction_r	hip_rotation_r	knee_angle_r	ankle_angle_r	subtalar_angle_r	mtp_angle_r	hip_flexion_l	hip_adduction_l	hip_rotation_l	knee_angle_l	ankle_angle_l	subtalar_angle_l	mtp_angle_l	lumbar_extension	lumbar_bending	lumbar_rotation	arm_flex_r	arm_add_r	arm_rot_r	elbow_flex_r	pro_sup_r	arm_flex_l	arm_add_l	arm_rot_l	elbow_flex_l	pro_sup_l
      3.46666670	     -4.22905166	     -1.06163293	     -1.14865116	      0.62138085	      0.84648830	     -0.07872908	     38.45655470	     -9.86150773	     -4.98852873	     38.00421575	     -5.42747789	     -9.14512852	      0.00000000	     38.78636238	    -11.00667668	     -4.68384778	     33.99999426	     -4.69027178	     -6.42378373	      0.00000000	    -17.85890337	      5.83907531	     -1.62259677	    117.07398627	    -28.22287584	     67.97661675	     98.35447574	     87.12776260	    117.64955993	    -28.52035075	     71.09459315	     90.46015203	     79.32131030
      3.48333330	     -3.66039164	     -0.76340058	     -1.53293549	      0.62729972	      0.80434902	     -0.08377722	     48.68579020	    -11.77845850	     -2.25007913	     57.32700861	      5.24502147	     -9.79746799	      0.00000000	     47.88248166	    -11.41472093	     -2.73787108	     51.77546293	      6.25608622	     -8.57798156	      0.00000000	    -19.88332671	      6.02293723	     -1.98218938	    119.85255078	    -28.87267954	     69.06095734	     99.43197003	     86.67045293	    119.75511397	    -30.06325592	     71.78962252	     91.94206285	     78.71514884
      3.50000000	     -2.10166432	     -1.04728619	     -1.26555590	      0.63243661	      0.77945583	     -0.08209470	     54.80955778	    -12.95317894	     -0.46622240	     71.14836909	     12.46990836	     -6.91842420	      0.00000000	     54.70738362	    -11.85938430	      0.08829732	     66.16874877	     13.60304904	     -8.01170980	      0.00000000	    -23.69529130	      6.61908590	     -2.85290988	    120.06127498	    -28.91835102	     68.36428845	    100.52601215	     86.05062140	    120.89308440	    -30.04388371	     71.62535732	     92.61304069	     78.05626359
      3.51666670	     -0.56347911	     -1.07963997	     -0.97958185	      0.64030756	      0.75041388	     -0.08312412	     58.48099951	    -14.21787550	      0.66818926	     80.42844988	     17.82455785	     -3.61416066	      0.00000000	     59.21551924	    -12.26137537	      2.21456746	     76.39994364	     19.07550576	     -5.34324821	      0.00000000	    -27.02486782	      6.58663839	     -3.22753799	    116.77465406	    -28.24133775	     65.66863432	    101.21688835	     84.70187091	    119.19726038	    -29.74115948	     69.45891583	     94.77754136	     76.76452479
      3.53333330	     -0.26991823	     -1.10809336	     -0.82215840	      0.64533441	      0.71667563	     -0.08404437	     61.45699342	    -15.50073982	      0.99379914	     86.49859032	     22.27502680	     -0.27556911	      0.00000000	     63.38909690	    -12.79919001	      3.68258449	     83.83514650	     22.90269256	     -2.55473131	      0.00000000	    -29.41059971	      6.31496244	     -2.91963559	    113.88081509	    -27.92831838	     63.47501432	    100.11269702	     83.65175764	    117.65447527	    -27.96416155	     67.36492502	     95.73413972	     75.94122001
      3.55000000	     -0.87188846	     -1.00639756	     -0.54238542	      0.65112289	      0.68718610	     -0.08524917	     63.87839805	    -16.89125524	      1.08312819	     90.30949949	     27.60639709	      2.83111186	      0.00000000	     67.39335266	    -13.38691321	      4.37896880	     89.23571344	     26.03705111	     -0.24518048	      0.00000000	    -30.77142048	      5.77621647	     -3.04284813	    110.53200404	    -29.00437794	     61.13302934	    103.40645684	     83.06517992	    115.71463564	    -26.75039082	     66.18565853	     97.43320384	     75.83126250
      3.56666670	     -2.03883517	     -0.80099229	     -0.50909105	      0.65311763	      0.66239153	     -0.08139258	     67.04758324	    -17.93282331	      1.36956170	     93.86614709	     31.91786536	      4.96390967	      0.00000000	     71.43873387	    -14.17302119	      4.85287346	     93.41464751	     28.43305756	      2.10563327	      0.00000000	    -31.47883416	      4.93625095	     -4.43456975	    105.26212012	    -25.26370901	     55.95777315	    100.59424018	     82.38132837	    114.33198868	    -26.67733447	     64.81672151	     97.34506912	     75.91825650
      3.58333330	     -3.36819304	     -0.62991461	     -0.67455775	      0.65532062	      0.63942279	     -0.08090706	     70.70231445	    -18.67471945	      2.05389428	     97.20299131	     34.85346083	      7.32131246	      0.00000000	     75.25955715	    -14.96323105	      5.16788964	     96.86628005	     29.95417513	      3.73264788	      0.00000000	    -32.43478808	      4.40321875	     -4.80276432	    103.22953136	    -23.58793311	     53.03702705	    100.65316332	     82.34684521	    113.26379730	    -27.49632036	     63.58408618	     99.06836749	     76.22701246
      3.60000000	     -4.54652478	     -0.50130603	     -0.58150759	      0.65607900	      0.61426825	     -0.08151870	     74.73985749	    -19.74522189	      2.76760708	    101.16612410	     36.56666481	      8.24272507	      0.00000000	     79.07807852	    -15.36743391	      5.65810572	    100.17563373	     31.62102164	      4.75021438	      0.00000000	    -32.72649503	      4.06121792	     -6.45473801	     99.31220350	    -20.68237554	     49.12182041	    102.02227765	     82.60515343	    112.40225519	    -29.24193288	     62.92996789	    100.69773466	     76.60721736
      3.61666670	     -5.41768568	     -0.36679257	     -0.65597776	      0.65647207	      0.59266516	     -0.07953886	     78.50281997	    -20.34919843	      3.69475126	    104.76240551	     38.02672284	      9.26970984	      0.00000000	     82.45352092	    -15.73067402	      6.40078711	    103.32157135	     32.46556768	      5.52050015	      0.00000000	    -34.58638837	      4.08677929	     -5.19626725	    102.99561623	    -20.35134064	     49.34023263	    103.72564011	     83.02862584	    113.46913875	    -29.56096636	     61.77978845	    102.33186613	     76.90365551
      3.63333330	     -6.76722055	     -0.35269400	     -0.54254383	      0.66404998	      0.56824068	     -0.07825516	     82.67932988	    -20.96254029	      4.84754197	    108.67517241	     39.23995095	      9.91805115	      0.00000000	     86.59312862	    -15.88334561	      7.67086205	    106.81302275	     33.16738762	      6.07615808	      0.00000000	    -35.40409629	      4.44002977	     -4.24463232	    106.07210189	    -20.66414038	     49.88404572	    104.54513168	     83.58704355	    113.70423848	    -29.81607621	     59.71925975	    104.29706333	     77.25139670
      3.65000000	     -8.13505216	     -0.53593200	     -0.37722747	      0.66782334	      0.55073491	     -0.07809829	     86.22655193	    -21.26812051	      5.83237663	    111.79765559	     39.81354882	      9.76388441	      0.00000000	     90.55404512	    -15.80836581	      9.01542644	    109.79855361	     33.64764764	      6.60655080	      0.00000000	    -36.27003820	      5.08419211	     -2.53641207	    109.01193341	    -21.28654532	     50.78764109	    104.18463826	     84.99804263	    112.89021694	    -28.88951134	     55.88555088	    105.03726241	     78.40593034
      3.66666670	     -9.57087702	     -0.64144319	      0.04898170	      0.66549759	      0.52795077	     -0.07965630	     90.19286393	    -21.79916499	      7.11902946	    114.75077434	     40.38789315	      9.76690704	      0.00000000	     94.97631227	    -15.26877457	     10.17098517	    112.72249952	     34.12834961	      7.08501044	      0.00000000	    -36.98106530	      5.44943858	     -1.32800976	    112.15665756	    -22.87711729	     51.33140190	    104.61406144	     86.19251097	    113.15870005	    -27.57885046	     53.42599699	    105.96808658	     79.76019476
